<?xml version="1.0" encoding="utf-8"?>
<!-- Generator: Adobe Illustrator 23.0.1, SVG Export Plug-In . SVG Version: 6.00 Build 0)  -->
<svg version="1.1" id="Layer_1" xmlns="http://www.w3.org/2000/svg" xmlns:xlink="http://www.w3.org/1999/xlink" x="0px" y="0px"
	 viewBox="0 0 282 230.4" style="enable-background:new 0 0 282 230.4;" xml:space="preserve">
<style type="text/css">
	.st0{fill:#9F9E9E;}
</style>
<path class="st0" d="M281.1,27.5c-10.3,4.6-21.4,7.7-33,9c11.9-7.1,21-18.4,25.3-31.8c-11.1,6.6-23.4,11.4-36.5,13.9
	C226.4,7.6,211.5,0.6,195,0.6c-31.7,0-57.4,25.7-57.4,57.4c0,4.5,0.5,8.9,1.5,13.1C91.3,68.7,49,45.9,20.7,11.1
	c-4.9,8.5-7.8,18.3-7.8,28.9c0,19.9,10.1,37.5,25.5,47.8c-9.4-0.3-18.3-2.9-26-7.2c0,0.2,0,0.5,0,0.7c0,27.8,19.8,51,46.1,56.3
	c-4.8,1.3-9.9,2-15.1,2c-3.7,0-7.3-0.4-10.8-1c7.3,22.8,28.5,39.4,53.7,39.9c-19.7,15.4-44.4,24.6-71.3,24.6
	c-4.6,0-9.2-0.3-13.7-0.8c25.4,16.3,55.6,25.8,88,25.8c105.6,0,163.4-87.5,163.4-163.4c0-2.5-0.1-5-0.2-7.4
	C263.7,49.2,273.4,39.1,281.1,27.5z"/>
</svg>
